<?xml version="1.0" encoding="utf-8"?>
<!-- Generator: Adobe Illustrator 16.0.0, SVG Export Plug-In . SVG Version: 6.00 Build 0)  -->
<!DOCTYPE svg PUBLIC "-//W3C//DTD SVG 1.1//EN" "http://www.w3.org/Graphics/SVG/1.1/DTD/svg11.dtd">
<svg version="1.1" id="图层_3" xmlns="http://www.w3.org/2000/svg" xmlns:xlink="http://www.w3.org/1999/xlink" x="0px" y="0px"
	 width="192px" height="192px" viewBox="0 0 192 192" enable-background="new 0 0 192 192" xml:space="preserve">
<path fill="#4285F4" d="M161.288,20H31.294C25.054,20,20,25.055,20,31.292v129.996c0,6.24,5.054,11.294,11.292,11.294h129.995
	c6.241,0,11.294-5.054,11.294-11.294V31.292C172.582,25.055,167.528,20,161.288,20z"/>
<g>
	<path fill="#FFFFFF" d="M61.455,115.575H36.667v-3.701L49.199,96.93c2.229-2.705,3.742-4.857,4.538-6.458
		c0.795-1.6,1.193-3.212,1.193-4.839c0-1.847-0.54-3.359-1.618-4.539c-1.079-1.179-2.568-1.768-4.469-1.768
		c-2.359,0-4.155,0.722-5.389,2.167c-1.233,1.444-1.851,3.245-1.851,5.402h-5.21l-0.055-0.165c-0.092-3.254,0.996-6.01,3.263-8.268
		c2.267-2.257,5.347-3.387,9.242-3.387c3.563,0,6.37,0.988,8.417,2.961c2.047,1.974,3.071,4.524,3.071,7.65
		c0,2.103-0.581,4.16-1.741,6.169c-1.161,2.011-2.929,4.533-5.306,7.569L43.22,111.215l0.055,0.138h18.18V115.575z"/>
	<path fill="#FFFFFF" d="M92.687,101.482c0,4.516-1.147,8.088-3.44,10.721c-2.295,2.632-5.379,3.949-9.255,3.949
		c-3.857,0-6.942-1.317-9.254-3.949c-2.313-2.633-3.469-6.205-3.469-10.721V89.746c0-4.479,1.146-8.043,3.441-10.694
		c2.294-2.65,5.37-3.976,9.228-3.976c3.875,0,6.969,1.326,9.282,3.976c2.312,2.651,3.468,6.215,3.468,10.694V101.482z
		 M87.286,88.622c0-2.87-0.64-5.137-1.919-6.801c-1.279-1.663-3.089-2.495-5.429-2.495c-2.322,0-4.113,0.832-5.375,2.495
		c-1.261,1.664-1.892,3.931-1.892,6.801v13.958c0,2.869,0.644,5.146,1.933,6.827c1.289,1.683,3.085,2.522,5.389,2.522
		c2.34,0,4.14-0.837,5.401-2.508c1.262-1.674,1.892-3.954,1.892-6.842V88.622z"/>
	<path fill="#FFFFFF" d="M120.272,102.14h5.513v4.223h-5.513v9.213h-5.374v-9.213H97.761v-3.043l16.808-27.668h5.704V102.14z
		 M103.546,102.14h11.353V83.412l-0.165-0.028l-0.521,1.372L103.546,102.14z"/>
	<path fill="#FFFFFF" d="M155.098,85.852c0,2.084-0.586,3.917-1.755,5.498c-1.171,1.582-2.725,2.765-4.663,3.551
		c2.267,0.786,4.087,2.039,5.457,3.755c1.371,1.721,2.058,3.703,2.058,5.951c0,3.674-1.193,6.518-3.579,8.528
		c-2.385,2.011-5.424,3.017-9.117,3.017c-3.912,0-7.106-1.006-9.584-3.017c-2.476-2.011-3.716-4.854-3.716-8.528
		c0-2.248,0.699-4.23,2.1-5.951c1.397-1.717,3.284-2.979,5.661-3.783c-2.048-0.768-3.666-1.942-4.853-3.524
		c-1.189-1.581-1.782-3.414-1.782-5.498c0-3.492,1.119-6.16,3.358-8.007c2.24-1.847,5.158-2.77,8.762-2.77
		c3.399,0,6.191,0.929,8.376,2.784S155.098,82.379,155.098,85.852z M150.82,104.498c0-2.175-0.71-3.967-2.124-5.374
		c-1.419-1.408-3.169-2.111-5.252-2.111c-2.268,0-4.141,0.703-5.623,2.111c-1.48,1.407-2.222,3.199-2.222,5.374
		c0,2.248,0.736,4.05,2.209,5.401c1.471,1.354,3.368,2.029,5.689,2.029c2.085,0,3.825-0.681,5.224-2.043
		C150.12,108.524,150.82,106.729,150.82,104.498z M149.695,85.934c0-1.919-0.599-3.5-1.796-4.743
		c-1.198-1.244-2.683-1.865-4.455-1.865c-1.957,0-3.565,0.6-4.826,1.796c-1.263,1.197-1.894,2.802-1.894,4.812
		c0,2.029,0.64,3.675,1.921,4.936c1.278,1.261,2.897,1.892,4.853,1.892c1.772,0,3.249-0.631,4.429-1.892
		S149.695,87.963,149.695,85.934z"/>
</g>
</svg>
