<?xml version="1.0" encoding="utf-8"?>
<!-- Generator: Adobe Illustrator 16.0.0, SVG Export Plug-In . SVG Version: 6.00 Build 0)  -->
<!DOCTYPE svg PUBLIC "-//W3C//DTD SVG 1.1//EN" "http://www.w3.org/Graphics/SVG/1.1/DTD/svg11.dtd">
<svg version="1.1" id="图层_3" xmlns="http://www.w3.org/2000/svg" xmlns:xlink="http://www.w3.org/1999/xlink" x="0px" y="0px"
	 width="192px" height="192px" viewBox="0 0 192 192" enable-background="new 0 0 192 192" xml:space="preserve">
<g>
	<circle fill="#4E4E4E" cx="96" cy="96" r="88"/>
	<circle fill="#FFFFFF" cx="96.083" cy="96.083" r="76.083"/>
	<g>
		<path fill="#FBBC05" d="M63.58,86.689c2.378,0.297,3.567,0,3.865-1.189c0.297-1.188-0.298-2.972-1.784-5.646
			c-0.595-0.893-1.783-3.27-3.864-7.432c-0.594-1.188-0.892-2.081-1.189-2.972c-2.081-3.567-5.053-4.161-8.917-2.378
			c-2.676,3.567-2.378,8.025,0.891,13.673C54.664,82.825,58.23,84.906,63.58,86.689L63.58,86.689z"/>
		<path fill="#FBBC05" d="M149.778,95.309c-1.783,0.297-3.864,0.596-6.539,0.596h-13.078c-1.189,0-1.784-0.893-1.784-2.973v-4.162
			c-0.594-2.972-2.675-5.053-6.539-5.646c-3.27-0.298-4.755,1.188-4.755,4.458v5.647c0,2.377-1.784,3.567-5.351,3.567H95.979
			c8.025-4.161,15.456-8.917,22.887-13.672c0.298-0.298,1.189-0.893,2.676-1.784c5.945-2.972,9.512-4.755,10.701-5.053
			c3.269-1.189,4.755-2.972,4.458-5.647c-0.298-5.053-1.784-7.728-4.458-8.025h-8.918l-8.025-2.378c0-0.297,0-0.892,0.298-1.188
			v-0.595c2.08-2.972,1.782-5.647-0.892-7.431c-2.676-1.486-5.351-0.892-8.025,2.377c-7.134,8.025-14.267,13.673-21.104,16.646
			c-1.783,0.297-2.377,1.189-2.08,2.377c0.595,1.486,1.784,2.378,3.566,2.973c1.784,0,4.162-0.297,7.134-1.189
			c1.486,0,1.783,0.892,1.189,2.378c-0.297,0.892-0.297,1.783,0,2.972c1.783,2.675,5.053,3.567,10.105,2.973
			c-7.134,3.864-13.672,6.241-19.915,7.431c-2.377,0-3.566,0.892-3.863,2.973c0,2.973,1.783,5.053,5.647,5.647
			c-3.269-0.297-5.944,0.893-8.323,4.162c0-18.131,0.297-32.399,0.892-43.1c0-3.863-2.378-6.242-7.134-6.836
			c-2.972,0-4.458,1.486-4.458,4.458c0.595,9.512,0.892,21.401,0.892,35.668c0.297,1.188,0,1.783-0.892,2.377
			c-3.27,1.783-9.214,4.756-17.537,8.621c-2.675,1.188-4.458,2.08-5.647,2.971c-3.864,1.783-4.756,5.648-2.972,11.592
			c2.081,6.242,6.836,6.242,14.267,0c5.053-3.566,9.512-7.727,13.375-12.781v32.102c0,3.568,1.486,5.053,4.458,4.459
			c3.269-1.188,5.053-3.566,5.35-6.836v-32.102c0.297,3.863,2.081,5.053,5.648,4.162c1.783-1.486,6.539-2.676,14.564-3.566
			c-2.378,1.188-3.567,3.566-3.567,6.836c1.487,8.025,5.648,11.295,12.782,9.809c0.892-0.893,1.485-1.783,1.783-2.973
			c0-1.189-0.298-1.783-1.189-1.783c-1.783-0.893-3.566-2.973-5.35-6.836c-0.893-2.973-2.08-4.758-3.566-5.053h15.456
			c1.188,0,1.783,0.891,1.783,2.377v12.781c0.891,12.186-6.54,14.861-22.59,8.025c-3.27-1.486-4.756-1.189-4.458,1.189
			c0.297,1.783,1.189,3.566,2.675,5.051c9.512,7.135,17.536,10.404,24.67,9.215c6.837-1.188,10.403-6.242,10.7-15.455v-18.43
			c0-1.486,0.298-2.377,0.892-2.377c1.784,0.297,3.271,1.189,4.757,2.377c2.377,1.486,4.458,2.379,6.539,2.379
			c5.35-0.893,8.619-5.053,10.105-12.781C151.562,95.904,151.265,95.012,149.778,95.309z M101.924,70.638
			c1.485-0.297,2.675-1.189,3.566-2.377c2.081-1.486,3.567-2.378,4.459-2.378c6.539,0.297,9.809,1.784,9.809,4.458
			c0.297,1.189,0,1.784-0.893,2.378c-3.566,2.972-7.728,5.944-12.483,8.619c2.081-1.783,2.081-3.566,0.298-4.458
			C103.707,75.394,101.924,73.313,101.924,70.638z"/>
	</g>
</g>
</svg>
