<?xml version="1.0" encoding="utf-8"?>
<!-- Generator: Adobe Illustrator 16.0.0, SVG Export Plug-In . SVG Version: 6.00 Build 0)  -->
<!DOCTYPE svg PUBLIC "-//W3C//DTD SVG 1.1//EN" "http://www.w3.org/Graphics/SVG/1.1/DTD/svg11.dtd">
<svg version="1.1" id="图层_3" xmlns="http://www.w3.org/2000/svg" xmlns:xlink="http://www.w3.org/1999/xlink" x="0px" y="0px"
	 width="192px" height="192px" viewBox="0 0 192 192" enable-background="new 0 0 192 192" xml:space="preserve">
<rect x="27.333" y="29" fill="#FFFFFF" width="138" height="133.667"/>
<path fill="#FCD163" d="M133.984,57.938V31.673h-5.836v26.265h-14.847c0.164,0.948,0.257,1.915,0.257,2.918
	c0,1.003-0.11,1.97-0.257,2.918h14.847V78.62c0.948-0.164,1.915-0.255,2.918-0.255c1.004,0,1.971,0.109,2.918,0.255V63.774h26.265
	v-5.836H133.984z M148.576,95.875c0,1.003-0.108,1.969-0.255,2.918h11.928v-5.837h-11.928
	C148.468,93.905,148.576,94.872,148.576,95.875z M31.847,127.976v5.837h11.929c-0.166-0.949-0.256-1.916-0.256-2.919
	c0-1.002,0.11-1.969,0.256-2.918H31.847z M58.11,148.148v11.929h5.837v-11.929c-0.948,0.164-1.915,0.255-2.918,0.255
	S59.059,148.295,58.11,148.148z M98.965,43.602V31.673h-5.836v11.929c0.948-0.164,1.916-0.256,2.92-0.256
	C97.051,43.346,98.019,43.456,98.965,43.602z M133.984,113.129c-0.947,0.164-1.914,0.255-2.918,0.255
	c-1.003,0-1.97-0.108-2.918-0.255v14.847H98.965V98.793h14.849c-0.164-0.949-0.255-1.915-0.255-2.918
	c0-1.003,0.108-1.97,0.255-2.918H98.965V78.11c-0.946,0.164-1.914,0.255-2.916,0.255c-1.004,0-1.972-0.109-2.92-0.255v14.846H63.947
	V63.774h14.847c-0.164-0.949-0.255-1.916-0.255-2.918c0-1.003,0.108-1.97,0.255-2.918H63.947V31.673H58.11v26.265H31.847v5.836
	H58.11v29.182H31.847v5.837H58.11v14.847c0.948-0.164,1.915-0.256,2.918-0.256s1.97,0.111,2.918,0.256V98.793h29.182v29.183H78.284
	c0.162,0.949,0.255,1.916,0.255,2.918c0,1.003-0.11,1.97-0.255,2.919h14.845v26.265h5.836v-26.265h29.184v26.265h5.836v-26.265
	h26.265v-5.837h-26.265V113.129z"/>
<path fill="#FBBC05" d="M160.706,20H31.39c-6.183,0-11.217,5.034-11.217,11.217v129.314c0,6.185,5.034,11.219,11.217,11.219h129.316
	c6.183,0,11.216-5.034,11.216-11.219V31.217C171.922,25.034,166.889,20,160.706,20z M160.249,57.938v102.14H31.847V31.673h128.402
	V57.938z"/>
<path fill="#4E4E4E" d="M131.066,78.365c-1.003,0-1.97,0.109-2.918,0.255c-7.313,1.24-13.095,7.004-14.335,14.336
	c-0.164,0.949-0.255,1.916-0.255,2.918c0,1.003,0.108,1.969,0.255,2.918c1.24,7.313,7.003,13.097,14.335,14.336
	c0.948,0.164,1.915,0.255,2.918,0.255c1.004,0,1.971-0.108,2.918-0.255c7.313-1.239,13.097-7.003,14.337-14.336
	c0.164-0.949,0.255-1.915,0.255-2.918c0-1.003-0.108-1.97-0.255-2.918c-1.24-7.313-7.003-13.096-14.337-14.336
	C133.037,78.474,132.07,78.365,131.066,78.365z"/>
<path fill="#4E4E4E" d="M113.302,57.938c-1.24-7.314-7.003-13.096-14.337-14.336c-0.946-0.164-1.914-0.256-2.916-0.256
	c-1.004,0-1.972,0.11-2.92,0.256c-7.313,1.24-13.095,7.004-14.335,14.336c-0.164,0.948-0.255,1.915-0.255,2.918
	c0,1.003,0.108,1.97,0.255,2.918c1.24,7.313,7.003,13.095,14.335,14.336c0.948,0.164,1.916,0.255,2.92,0.255
	c1.002,0,1.97-0.109,2.916-0.255c7.313-1.241,13.097-7.004,14.337-14.336c0.164-0.949,0.257-1.916,0.257-2.918
	C113.559,59.852,113.448,58.885,113.302,57.938z"/>
<path fill="#4E4E4E" d="M63.947,113.64c-0.948-0.164-1.915-0.256-2.918-0.256s-1.97,0.111-2.918,0.256
	c-7.313,1.241-13.096,7.005-14.335,14.336c-0.166,0.949-0.256,1.916-0.256,2.918c0,1.003,0.11,1.97,0.256,2.919
	c1.239,7.313,7.003,13.095,14.335,14.336c0.948,0.164,1.915,0.255,2.918,0.255s1.97-0.108,2.918-0.255
	c7.313-1.241,13.095-7.005,14.337-14.336c0.162-0.949,0.255-1.916,0.255-2.919c0-1.002-0.11-1.969-0.255-2.918
	C77.042,120.662,71.261,114.881,63.947,113.64z"/>
<path fill="#FFFFFF" d="M72.283,133.813c-1.059,4.087-4.25,7.275-8.335,8.336c-0.93,0.236-1.897,0.419-2.918,0.419
	c-1.021,0-1.988-0.164-2.918-0.419c-4.085-1.061-7.277-4.249-8.335-8.336c-0.236-0.93-0.419-1.896-0.419-2.919
	c0-1.02,0.164-1.986,0.419-2.918c1.059-4.085,4.25-7.275,8.335-8.336c0.931-0.237,1.897-0.419,2.918-0.419
	c1.021,0,1.988,0.164,2.918,0.419c4.086,1.061,7.277,4.251,8.335,8.336c0.236,0.932,0.419,1.898,0.419,2.918
	C72.702,131.916,72.538,132.883,72.283,133.813z"/>
</svg>
