<?xml version="1.0" encoding="utf-8"?>
<!-- Generator: Adobe Illustrator 16.0.0, SVG Export Plug-In . SVG Version: 6.00 Build 0)  -->
<!DOCTYPE svg PUBLIC "-//W3C//DTD SVG 1.1//EN" "http://www.w3.org/Graphics/SVG/1.1/DTD/svg11.dtd">
<svg version="1.1" id="图层_3" xmlns="http://www.w3.org/2000/svg" xmlns:xlink="http://www.w3.org/1999/xlink" x="0px" y="0px"
	 width="192px" height="192px" viewBox="0 0 192 192" enable-background="new 0 0 192 192" xml:space="preserve">
<path fill="#4E4E4E" d="M155.545,149.588c-9.93,0-15.591-5.937-22.147-12.812c-2.322-2.433-4.724-4.95-7.528-7.453
	c-7.342-6.552-14.731-7.455-21.622-7.455c-1.236,0-2.434,0.028-3.588,0.057c-1.108,0.028-2.177,0.053-3.198,0.053h-3.319
	c-1.021,0-2.091-0.024-3.198-0.053c-1.155-0.028-2.353-0.057-3.589-0.057c-6.89,0-14.28,0.903-21.622,7.455
	c-2.804,2.503-5.205,5.021-7.526,7.453c-6.557,6.875-12.22,12.812-22.148,12.812c-3.867,0-7.102-1.422-9.613-4.226
	c-6.43-7.182-7.996-23.436-4.931-51.157c4.224-38.188,21.685-51.794,36.616-51.794c5.381,0,9.07,2.213,12.976,4.558
	c5.385,3.23,11.488,6.893,24.695,6.893c13.208,0,19.312-3.663,24.695-6.893c3.908-2.345,7.596-4.558,12.978-4.558
	c14.931,0,32.393,13.606,36.617,51.794c3.063,27.721,1.498,43.975-4.933,51.157C162.645,148.166,159.412,149.588,155.545,149.588z"
	/>
<path fill="#FFFFFF" d="M141.236,73.764c0,4.052-3.283,7.335-7.335,7.335c-4.05,0-7.335-3.283-7.335-7.335s3.285-7.335,7.335-7.335
	C137.953,66.429,141.236,69.712,141.236,73.764z"/>
<path fill="#FFFFFF" d="M141.236,103.104c0,4.052-3.283,7.335-7.335,7.335c-4.05,0-7.335-3.283-7.335-7.335s3.285-7.335,7.335-7.335
	C137.953,95.768,141.236,99.052,141.236,103.104z"/>
<path fill="#FFFFFF" d="M148.569,95.768c-4.05,0-7.335-3.283-7.335-7.334s3.285-7.335,7.335-7.335s7.336,3.283,7.336,7.335
	S152.619,95.768,148.569,95.768z"/>
<path fill="#FFFFFF" d="M119.23,95.768c-4.052,0-7.335-3.283-7.335-7.334s3.283-7.335,7.335-7.335c4.05,0,7.336,3.283,7.336,7.335
	S123.28,95.768,119.23,95.768z"/>
<path fill="#FFFFFF" d="M76.854,83.543H64.628V71.319c0-2.7-2.189-4.89-4.891-4.89c-2.7,0-4.89,2.19-4.89,4.89v12.225H42.624
	c-2.701,0-4.889,2.189-4.889,4.89c0,2.7,2.188,4.89,4.889,4.89h12.224v12.225c0,2.701,2.19,4.891,4.89,4.891
	c2.701,0,4.891-2.189,4.891-4.891V93.323h12.226c2.701,0,4.89-2.189,4.89-4.89C81.743,85.733,79.555,83.543,76.854,83.543z"/>
</svg>
